<?xml version="1.0" encoding="UTF-8"?>
<svg width="321px" height="75px" viewBox="0 0 321 75" version="1.1" xmlns="http://www.w3.org/2000/svg" xmlns:xlink="http://www.w3.org/1999/xlink">
    <!-- Generator: Sketch 41.2 (35397) - http://www.bohemiancoding.com/sketch -->
    <title>Logo</title>
    <desc>Created with Sketch.</desc>
    <defs></defs>
    <g id="Logo" stroke="none" stroke-width="1" fill="none" fill-rule="evenodd">
        <path d="M2.55616602,72.708 L2.55616602,30.5058249 C2.55616602,26.912757 5.47580742,24 9.06104004,24 L9.06104004,24 C12.6535828,24 15.5659141,26.919102 15.5659141,30.5058249 L15.5659141,72.708 L2.55616602,72.708 Z M0,9.1097561 C0,6.54876768 0.878698398,4.39025268 2.63612156,2.63414634 C4.39354471,0.87804 6.51706584,0 9.00674865,0 C11.5696574,0 13.7114848,0.87804 15.4322949,2.63414634 C17.1531051,4.39025268 18.0134973,6.54876768 18.0134973,9.1097561 C18.0134973,11.5244023 17.1531051,13.6097473 15.4322949,15.3658537 C13.7114848,17.12196 11.5696574,18 9.00674865,18 C6.51706584,18 4.39354471,17.12196 2.63612156,15.3658537 C0.878698398,13.6097473 0,11.5244023 0,9.1097561 L0,9.1097561 Z M35.7180109,72.995 L22.5734126,72.995 L22.5734126,24.287 L33.3297919,24.287 C34.4299001,24.287 35.321714,25.1780752 35.321714,26.2811311 L35.321714,30.326 C36.8408599,27.8179875 38.9048858,25.9700059 41.5138537,24.782 C44.1228216,23.5939941 46.7482626,23 49.3902554,23 C52.4285471,23 55.0539881,23.5114949 57.2666571,24.5345 C59.479326,25.5575051 61.3121811,26.9269914 62.7652771,28.643 C64.2183732,30.3590086 65.2916666,32.4049881 65.9851898,34.781 C66.6787129,37.1570119 66.6071558,39.5877517 66.6071558,42.305 L66.6071558,72.995 L57.8504783,72.995 C55.6402997,72.995 53.848596,71.1960844 53.848596,68.9993859 L53.848596,44.582 C53.848596,41.8099861 53.138571,39.5000092 51.7184999,37.652 C50.2984288,35.8039908 48.0032319,34.88 44.8328406,34.88 C41.9266485,34.88 39.6809883,35.8534903 38.0957926,37.8005 C36.5105969,39.7475097 35.7180109,42.1399858 35.7180109,44.978 L35.7180109,72.995 Z M156.718011,72.995 L143.573413,72.995 L143.573413,24.287 L154.329792,24.287 C155.4299,24.287 156.321714,25.1780752 156.321714,26.2811311 L156.321714,30.326 C157.84086,27.8179875 159.904886,25.9700059 162.513854,24.782 C165.122822,23.5939941 167.748263,23 170.390255,23 C173.428547,23 176.053988,23.5114949 178.266657,24.5345 C180.479326,25.5575051 182.312181,26.9269914 183.765277,28.643 C185.218373,30.3590086 186.291667,32.4049881 186.98519,34.781 C187.678713,37.1570119 187.607156,39.5877517 187.607156,42.305 L187.607156,72.995 L178.850478,72.995 C176.6403,72.995 174.848596,71.1960844 174.848596,68.9993859 L174.848596,44.582 C174.848596,41.8099861 174.138571,39.5000092 172.7185,37.652 C171.298429,35.8039908 169.003232,34.88 165.832841,34.88 C162.926648,34.88 160.680988,35.8534903 159.095793,37.8005 C157.510597,39.7475097 156.718011,42.1399858 156.718011,44.978 L156.718011,72.995 Z M92.9366306,24.156 L102.74498,24.156 L102.74498,35.838 L92.9366306,35.838 L92.9366306,56.232 C92.9366306,58.3440106 93.4154846,59.8124959 94.373207,60.6375 C95.3309294,61.4625041 96.7674914,61.875 98.6829362,61.875 C99.4755341,61.875 98.7643233,61.873864 98.7643233,61.873864 C100.962779,61.6557866 102.74498,63.277262 102.74498,65.4721974 L102.74498,72.369 C102.150531,72.6330013 101.24236,72.8969987 100.020438,73.161 C98.7985167,73.4250013 97.229857,73.557 95.3144122,73.557 C90.5588252,73.557 86.7940419,72.2370132 84.0199494,69.597 C81.245857,66.9569868 79.8588315,63.2610238 79.8588315,58.509 L79.8588315,35.838 L71.0412246,35.838 L71.0412246,24.156 L73.5180805,24.156 C76.0940235,24.156 77.9929273,23.4135074 79.214849,21.9285 C80.4367707,20.4434926 81.0477224,18.6120109 81.0477224,16.434 L81.0477224,9.603 L90.9332833,9.603 C92.0397014,9.603 92.9366306,10.4914483 92.9366306,11.5960182 L92.9366306,24.156 Z M138.365416,33.2257725 C138.365416,35.4339326 136.583043,36.9913546 134.402447,36.828 L134.402447,36.828 C132.685152,36.828 131.066955,37.0589977 129.547809,37.521 C128.028663,37.9830023 126.707687,38.7419947 125.58484,39.798 C124.461993,40.8540053 123.553822,42.2564913 122.860298,44.0055 C122.166775,45.7545087 121.820019,47.9489868 121.820019,50.589 L121.820019,72.864 L108.643146,72.864 L108.643146,24.156 L119.426757,24.156 C120.52965,24.156 121.423722,25.0421721 121.423722,26.1499404 L121.423722,31.383 C122.15027,29.7989921 123.091466,28.4955051 124.247338,27.4725 C125.40321,26.4494949 126.625113,25.6740026 127.913084,25.146 C129.201056,24.6179974 130.489008,24.255001 131.77698,24.057 C133.064951,23.858999 134.237318,23.76 135.294115,23.76 C135.822514,23.76 136.334392,23.7764998 136.829766,23.8095 C137.325139,23.8425002 137.837018,23.8919997 138.365416,23.958 L138.365416,33.2257725 Z M193.547005,64.539 C193.547005,62.033493 194.415849,59.9071406 196.153563,58.1598791 C197.891276,56.4126176 200.006009,55.539 202.497825,55.539 C203.743733,55.539 204.924049,55.7697669 206.038809,56.2313077 C207.153568,56.6928485 208.120772,57.3356992 208.940448,58.1598791 C209.760124,58.9840591 210.399462,59.9400935 210.858481,61.028011 C211.317499,62.1159285 211.547005,63.2862465 211.547005,64.539 C211.547005,65.7917535 211.317499,66.9620715 210.858481,68.049989 C210.399462,69.1379065 209.760124,70.0939409 208.940448,70.9181209 C208.120772,71.7423008 207.153568,72.3851515 206.038809,72.8466923 C204.924049,73.3082331 203.743733,73.539 202.497825,73.539 C200.006009,73.539 197.891276,72.6653824 196.153563,70.9181209 C194.415849,69.1708594 193.547005,67.044507 193.547005,64.539 L193.547005,64.539 Z M236.142918,35.739 C234.656797,36.333003 233.352332,37.2074942 232.229485,38.3625 C231.106638,39.5175058 230.214979,40.9529914 229.554481,42.669 C228.893983,44.3850086 228.563739,46.3319891 228.563739,48.51 C228.563739,50.6880109 228.893983,52.6349914 229.554481,54.351 C230.214979,56.0670086 231.123151,57.5189941 232.279022,58.707 C233.434894,59.8950059 234.755871,60.785997 236.241992,61.38 C237.728113,61.974003 239.329797,62.271 241.047092,62.271 C242.698338,62.271 244.167924,62.0235025 245.455896,61.5285 C246.743867,61.0334975 247.850185,60.390004 248.774883,59.598 C249.69958,58.805996 250.442629,57.9150049 251.004053,56.925 C251.565476,55.934995 251.070327,56.8050704 251.070327,56.8050704 C251.717689,55.2856962 253.516153,54.4782391 255.092972,55.0034519 L263.834166,57.915 C263.305768,59.9610102 262.430621,61.9574903 261.208699,63.9045 C259.986777,65.8515097 258.418118,67.6004922 256.502673,69.1515 C254.587228,70.7025078 252.341568,71.9564952 249.765625,72.9135 C247.189682,73.8705048 244.283533,74.349 241.047092,74.349 C237.480402,74.349 234.128424,73.7055064 230.991057,72.4185 C227.853691,71.1314936 225.129177,69.3330115 222.817433,67.023 C220.505689,64.7129884 218.689346,61.9905157 217.36835,58.8555 C216.047354,55.7204843 215.386865,52.2720188 215.386865,48.51 C215.386865,44.7479812 216.030841,41.2830158 217.318813,38.115 C218.606784,34.9469842 220.390103,32.2245114 222.668822,29.9475 C224.94754,27.6704886 227.622518,25.8885064 230.693835,24.6015 C233.765151,23.3144936 237.084105,22.671 240.650795,22.671 C243.953286,22.671 246.908971,23.1494952 249.517939,24.1065 C252.126907,25.0635048 254.38908,26.3009924 256.304524,27.819 C258.219969,29.3370076 259.772117,31.0859901 260.961014,33.066 C262.14991,35.0460099 263.008545,37.0589898 263.536944,39.105 L255.815844,41.6418066 C253.71356,42.3325228 251.070592,41.3781325 249.894826,39.4884206 C249.894826,39.4884206 249.879841,39.4539265 249.765625,39.284869 C249.651409,39.1158115 248.875391,37.9786379 248.329049,37.422 C246.644778,35.7059914 244.184459,34.848 240.948018,34.848 C239.230723,34.848 237.629039,35.144997 236.142918,35.739 Z M295.438847,62.37 C297.024043,62.37 298.576191,62.073003 300.095336,61.479 C301.614482,60.884997 302.935459,60.0105058 304.058306,58.8555 C305.181153,57.7004942 306.089324,56.2650086 306.782847,54.549 C307.47637,52.8329914 307.823127,50.8200115 307.823127,48.51 C307.823127,46.1999884 307.47637,44.1870086 306.782847,42.471 C306.089324,40.7549914 305.181153,39.3195058 304.058306,38.1645 C302.935459,37.0094942 301.614482,36.135003 300.095336,35.541 C298.576191,34.946997 297.024043,34.65 295.438847,34.65 C293.853652,34.65 292.301504,34.946997 290.782358,35.541 C289.263212,36.135003 287.942236,37.0094942 286.819389,38.1645 C285.696542,39.3195058 284.788371,40.7549914 284.094847,42.471 C283.401324,44.1870086 283.054568,46.1999884 283.054568,48.51 C283.054568,50.8200115 283.401324,52.8329914 284.094847,54.549 C284.788371,56.2650086 285.696542,57.7004942 286.819389,58.8555 C287.942236,60.0105058 289.263212,60.884997 290.782358,61.479 C292.301504,62.073003 293.853652,62.37 295.438847,62.37 L295.438847,62.37 Z M295.438847,22.671 C299.071587,22.671 302.45659,23.3144936 305.593956,24.6015 C308.731323,25.8885064 311.439325,27.6704886 313.718044,29.9475 C315.996763,32.2245114 317.780081,34.9469842 319.068052,38.115 C320.356024,41.2830158 321,44.7479812 321,48.51 C321,52.2720188 320.356024,55.7204843 319.068052,58.8555 C317.780081,61.9905157 315.996763,64.7129884 313.718044,67.023 C311.439325,69.3330115 308.731323,71.1314936 305.593956,72.4185 C302.45659,73.7055064 299.071587,74.349 295.438847,74.349 C291.806107,74.349 288.421105,73.7055064 285.283738,72.4185 C282.146372,71.1314936 279.43837,69.3330115 277.159651,67.023 C274.880932,64.7129884 273.097614,61.9905157 271.809642,58.8555 C270.521671,55.7204843 269.877695,52.2720188 269.877695,48.51 C269.877695,44.7479812 270.521671,41.2830158 271.809642,38.115 C273.097614,34.9469842 274.880932,32.2245114 277.159651,29.9475 C279.43837,27.6704886 282.146372,25.8885064 285.283738,24.6015 C288.421105,23.3144936 291.806107,22.671 295.438847,22.671 L295.438847,22.671 Z" fill="#575757"></path>
    </g>
</svg>